<?xml version="1.0" encoding="utf-8"?>
<!-- Generator: Adobe Illustrator 26.5.3, SVG Export Plug-In . SVG Version: 6.00 Build 0)  -->
<svg version="1.1" id="Layer_1" xmlns="http://www.w3.org/2000/svg" xmlns:xlink="http://www.w3.org/1999/xlink" x="0px" y="0px"
	 viewBox="0 0 400.9 180.5" style="enable-background:new 0 0 400.9 180.5;" xml:space="preserve">
<style type="text/css">
	.st0{fill:#5A5959;}
	.st1{fill:#D4A55D;}
	.st2{fill:#C9A962;}
	.st3{fill:none;stroke:#FFFFFF;stroke-width:3;stroke-miterlimit:10;}
	.st4{fill:#FFFFFF;}
	.st5{fill:none;stroke:#FFFFFF;stroke-miterlimit:10;}
	.st6{fill:#C4A67C;}
	.st7{fill:url(#SVGID_1_);}
	.st8{fill:none;stroke:#C9BC8E;stroke-miterlimit:10;}
	.st9{fill:#271D05;}
	.st10{fill:url(#SVGID_00000045606429906830261980000008249277438136606120_);}
	.st11{fill:#F5FBF0;}
	.st12{stroke:#000000;stroke-width:2;stroke-linecap:round;stroke-linejoin:round;stroke-miterlimit:10;}
	.st13{fill:none;stroke:#000000;stroke-width:16;stroke-linecap:round;stroke-linejoin:round;stroke-miterlimit:10;}
	.st14{fill:none;}
	.st15{stroke:#FFFFFF;stroke-width:1.8;stroke-linecap:round;stroke-linejoin:round;stroke-miterlimit:10;}
	.st16{fill:none;stroke:#000000;stroke-linecap:round;stroke-linejoin:round;stroke-miterlimit:10;}
	.st17{stroke:#000000;stroke-width:2;stroke-miterlimit:10;}
	.st18{fill:#9AC9DB;}
	.st19{fill:#CFE9EA;}
</style>
<g>
	<g>
		<path class="st1" d="M251.6,28.2c36.7,7.2,44.8,3.7,79.8,11.9c13.3,3.1,32.4,9.3,40.1,20.6c5.4,8,14.5,24.9,14.1,36.7
			c-0.7,20.1,2.2,28.2-8.1,61.4c-0.5,1.6-3,6-4.1,7.3c-1,1.2-5.1,4-8.1,4.5c-9.5,1.4-14.9,0.4-24.5,0c-13-0.6-30.7-0.4-43.6,0.8
			c-27.3,2.6-41,1.2-65.6,1.8c-25.5,0.6-60.5-1.8-74.5-2.4c-19-0.9-47.9,4.1-66.8,2c-12.5-1.4-15-2.3-20.7-3.9
			c-3.7-1-7.7-5.6-9.3-7.3c-2.1-2-8.9-10.5-12.4-16.9c-7.1-19.1-7.5-28.6-5.2-50.3c1.4-13,8.4-29.1,24-41.8
			C85.7,37.1,83.4,33,107.9,23c32.9-5.1,47.7-2.8,70.3-0.3C203.2,25.4,236.8,25.3,251.6,28.2z"/>
	</g>
	<g>
		<g>
			<path class="st17" d="M99.7,27.1c-2.6-7.3-5.6-11.7-9.4-13.5c-0.1,0-0.2-0.1-0.3-0.1h-0.4c-2.9,0-4.9,3-6.1,9.3
				c-2.8,19.6-4.3,38.5-4.4,56.2c0,3.4,0.1,6.9,0.4,10.2c0,5.2-1,20.9-2.9,46.7c0,4.2,2.5,4.9,4,4.9c0.1,0,0.3,0,0.4-0.1
				c1.4-0.9,2-1.6,2-2.4c0-0.8-0.3-1.7-0.8-2.6l2.5-33.9V87.7c0.4-0.4,2.9-1.8,19-3.3l2.1,0.3c1.9,14,3,21.8,3.6,23.8
				c3,26.5,4.1,28.7,4.5,29.5c0.1,0.3,0.4,0.4,0.7,0.4c2.1,0,2.9-0.9,3.2-1.7c0-0.1,0.1-0.2,0.1-0.3c0-8-1.1-17.5-3.2-28.1
				C111.6,75.5,106.5,48.2,99.7,27.1z M105.5,78.7c-6.7,0.1-13.6,1.1-20.7,3v-0.1c0-6.4,0.1-8,0.2-8.5c0.1-0.1,0.1-0.3,0.1-0.5
				c0-21,1.7-38.4,5-51.9c0.7,0.8,1.7,2.3,3.2,5.4C101.2,53.4,105.3,71.1,105.5,78.7z"/>
			<path class="st17" d="M186.4,42.7c0-7.2,0.4-18.2,1-32.5c0-0.3-0.2-0.6-0.4-0.8l-2.2-1.1c-0.1-0.1-0.2-0.1-0.4-0.1
				c-0.9,0-2.6,0.4-2.9,2.9c0,0,0,0.1,0,0.1v27.1c0,3-0.3,7-0.8,12c0,0,0,0.1,0,0.1c0,2.2,0,3.7,0.1,4.5c-0.3,6.6-0.5,10.5-0.5,11.6
				c0,3.8,0.7,21.4,2.2,52.2v1.4c-10.5-31.9-16.5-52.2-18-60.2c0,0,0-0.1,0-0.1C149.2,7.1,147.6,7.1,146.5,7.1c-0.9,0-2.6,0.4-3,2.9
				c0,0,0,0.1,0,0.1v66.2c0,17.5,0.7,37.6,2.2,59.7c0,1.9,1.1,2.9,2.9,2.9h2.2c0.2,0,0.5-0.1,0.6-0.3c0.2-0.2,0.2-0.4,0.2-0.6
				c-2.2-18.3-3.2-42-3.2-70.4c0-5.7,0.3-15.6,0.8-29.7l-0.1-3.2c0-2.5-0.2-5.9-0.5-10l9.1,31.2c25.1,85.2,26.7,85.2,27.9,85.2
				c0.1,0,0.3,0,0.4-0.1l2.1-1.1c0.3-0.1,0.5-0.4,0.5-0.8c-1.4-34.8-2.1-63.7-2.1-85.8V42.7z"/>
			<path class="st17" d="M311.9,27l-0.1-3.5c0-0.1,0-0.2-0.1-0.4l-0.9-1.6c-0.1-0.3-0.4-0.4-0.7-0.4h-1c-0.3,0-0.7,0.2-0.8,0.6
				c-13.3,38.7-16.3,49.2-17,52.4c-19.9-54.1-21.5-54.6-22.4-54.9c-0.2-0.1-0.4-0.1-0.6,0.1l-2,1c-0.3,0.2-0.5,0.5-0.4,0.8
				c2,16.1,4,54.8,6.1,114.9c0,1.8,1,2.9,2.8,2.9c0.1,0,0.3,0,0.4-0.1l2-1c0.3-0.1,0.5-0.4,0.4-0.8l-5-99
				c15.8,44.1,18.1,44.3,19.3,44.3c0.2,0,0.4,0,0.5-0.2c0.6-0.4,1.7-1.3,13.9-39l0,40.5c2,57.3,3.4,57.3,4.8,57.3
				c0.1,0,0.3,0,0.4-0.1l2.1-1c0.3-0.1,0.5-0.5,0.4-0.8c-2-34-3-54-3-59.5C310.9,65.2,311.2,47.6,311.9,27z"/>
			<path class="st17" d="M367.9,114.4c-2.6-26.3-6.7-48.3-12.2-65.3c-2.1-5.9-4.6-9.5-7.6-10.9c-0.1,0-0.2-0.1-0.3-0.1h-0.3
				c-2.4,0-4.1,2.5-5.1,7.6c-2.3,15.8-3.5,31-3.6,45.2c0,2.8,0.1,5.6,0.3,8.2c0,4.2-0.8,16.8-2.3,37.6c0,3.5,2.1,4.1,3.4,4.1
				c0.2,0,0.3,0,0.4-0.1c1.2-0.7,1.7-1.3,1.7-2c0-0.7-0.2-1.4-0.6-2.1l2-27.3V98c0.4-0.4,2.8-1.4,15.2-2.6l1.6,0.2
				c1.5,11.1,2.4,17.4,2.9,19c2.1,19.1,3.1,22.7,3.6,23.8c0.1,0.3,0.4,0.4,0.7,0.4c1.8,0,2.5-0.8,2.8-1.5c0-0.1,0.1-0.2,0.1-0.3
				C370.5,130.6,369.7,122.9,367.9,114.4z M360.1,90.5c-5.3,0.1-10.7,0.9-16.4,2.3c0-4.9,0.1-6.3,0.2-6.7c0.1-0.1,0.1-0.3,0.1-0.4
				c0-16.7,1.3-30.6,4-41.4c0.5,0.6,1.3,1.8,2.3,4.1C356.6,70.2,359.9,84.3,360.1,90.5z"/>
			<path class="st17" d="M231.7,12.2h-0.7c-0.2,0-0.3,0-0.4,0.1c-1.3,0.8-1.9,1.5-1.9,2.2c0,0,0,0.1,0,0.1c0.7,4.6,1.1,9.8,1.1,15.5
				l0,10.3c-1.5,16.2-2.2,46.2-2.2,89c0,9.1,0.8,10.9,2.3,10.9h1.5c1.7,0,2.1-2.5,2.3-3.3c0-0.1,0-0.2,0-0.3
				c-0.6-2.5-0.7-3.3-0.7-3.5v-24.2c0-7.6,0.1-18,0.4-30.9c0-0.1,0-0.1,0-0.2c-0.2-0.9-0.3-1.9-0.3-2.7c1.5-20.2,2.2-32.8,2.2-37.7
				v-4.8C235.1,13.8,233.3,12.2,231.7,12.2z"/>
		</g>
		<path class="st17" d="M40.9,53.9c-0.2-2.7-0.6-5.2-1.3-7.2c0,0,0-0.1,0-0.1C36,37.5,29.1,32.8,19.2,32.8c-0.2,0-0.5,0.1-0.6,0.2
			c-0.9,0.6-1.8,1.2-1.8,2.2v0.9c0,0.6,0.2,1.1,0.6,1.4l-1.5,54.2c0,1.1,0.2,4,0.5,8.8c-0.4,0.3-0.9,0.8-1.1,1.7c0,0.1,0,0.2,0,0.3
			c0,0.6,0.2,1.5,1.2,2.2c0.2,11.2,0.6,22.4,1.4,33.6c0.2,3.1,5.8,2,5.6-0.7c-0.7-10.9-1.1-21.8-1.3-32.7c0.4-0.1,1.1-0.2,2.3-0.3
			c0.2,0,0.3-0.1,0.5-0.1c4-2,7.1-4.9,9.3-8.6c0-0.1,0.1-0.2,0.1-0.3C38.7,80.7,40.9,66.6,40.9,53.9C40.9,54,40.9,53.9,40.9,53.9z
			 M27.1,39.7c5.6,3.9,8.4,8.3,8.4,13.1c0,1.1-0.1,3.5-0.3,7.1C32.4,88.8,29,95,27.3,96.1c-0.1,0.1-0.2,0.1-0.2,0.2
			c-1.9,1.9-3.7,3-5.4,3.2c0-1.7-0.1-4.3-0.3-7.8l1.5-53.2C24.4,38.9,25.8,39.3,27.1,39.7z"/>
	</g>
</g>
</svg>
