<?xml version="1.0" encoding="utf-8"?>
<!-- Generator: Adobe Illustrator 26.5.3, SVG Export Plug-In . SVG Version: 6.00 Build 0)  -->
<svg version="1.1" id="Layer_1" xmlns="http://www.w3.org/2000/svg" xmlns:xlink="http://www.w3.org/1999/xlink" x="0px" y="0px"
	 viewBox="0 0 388.2 174.2" style="enable-background:new 0 0 388.2 174.2;" xml:space="preserve">
<style type="text/css">
	.st0{fill:#5A5959;}
	.st1{fill:#D4A55D;}
	.st2{fill:#C9A962;}
	.st3{fill:none;stroke:#FFFFFF;stroke-width:3;stroke-miterlimit:10;}
	.st4{fill:#FFFFFF;}
	.st5{fill:none;stroke:#FFFFFF;stroke-miterlimit:10;}
	.st6{fill:#C4A67C;}
	.st7{fill:url(#SVGID_1_);}
	.st8{fill:none;stroke:#C9BC8E;stroke-miterlimit:10;}
	.st9{fill:#271D05;}
	.st10{fill:url(#SVGID_00000129164141356255417180000008872113768489943450_);}
	.st11{fill:#F5FBF0;}
	.st12{stroke:#000000;stroke-width:2;stroke-linecap:round;stroke-linejoin:round;stroke-miterlimit:10;}
	.st13{fill:none;stroke:#000000;stroke-width:16;stroke-linecap:round;stroke-linejoin:round;stroke-miterlimit:10;}
	.st14{fill:none;}
	.st15{stroke:#FFFFFF;stroke-width:1.8;stroke-linecap:round;stroke-linejoin:round;stroke-miterlimit:10;}
	.st16{fill:none;stroke:#000000;stroke-linecap:round;stroke-linejoin:round;stroke-miterlimit:10;}
	.st17{fill:#EFE0A7;}
</style>
<g>
	<g>
		<path class="st1" d="M245.3,25.1c36.7,7.2,44.8,3.7,79.8,11.9c13.3,3.1,32.4,9.3,40.1,20.6c5.4,8,14.5,24.9,14.1,36.7
			c-0.7,20.1,2.2,28.2-8.1,61.4c-0.5,1.6-3,6-4.1,7.3c-1,1.2-5.1,4-8.1,4.5c-9.5,1.4-14.9,0.4-24.5,0c-13-0.6-30.7-0.4-43.6,0.8
			c-27.3,2.6-41,1.2-65.6,1.8c-25.5,0.6-60.5-1.8-74.5-2.4c-19-0.9-47.9,4.1-66.8,2c-12.5-1.4-15-2.3-20.7-3.9
			c-3.7-1-7.7-5.6-9.3-7.3c-2.1-2-8.9-10.5-12.4-16.9c-7.1-19.1-7.5-28.6-5.2-50.3c1.4-13,8.4-29.1,24-41.8
			c19.2-15.7,16.8-19.7,41.4-29.7c32.9-5.1,47.7-2.8,70.3-0.3C196.9,22.3,230.4,22.1,245.3,25.1z"/>
	</g>
	<g>
		<path d="M93.4,24c-2.6-7.3-5.6-11.7-9.4-13.5c-0.1,0-0.2-0.1-0.3-0.1h-0.4c-2.9,0-4.9,3-6.1,9.3c-2.8,19.6-4.3,38.5-4.4,56.2
			c0,3.4,0.1,6.9,0.4,10.2c0,5.2-1,20.9-2.9,46.7c0,4.2,2.5,4.9,4,4.9c0.1,0,0.3,0,0.4-0.1c1.4-0.9,2-1.6,2-2.4
			c0-0.8-0.3-1.7-0.8-2.6l2.5-33.9V84.5c0.4-0.4,2.9-1.8,19-3.3l2.1,0.3c1.9,14,3,21.8,3.6,23.8c3,26.5,4.1,28.7,4.5,29.5
			c0.1,0.3,0.4,0.4,0.7,0.4c2.1,0,2.9-0.9,3.2-1.7c0-0.1,0.1-0.2,0.1-0.3c0-8-1.1-17.5-3.2-28.1C105.3,72.3,100.2,45.1,93.4,24z
			 M99.1,75.5c-6.7,0.1-13.6,1.1-20.7,3v-0.1c0-6.4,0.1-8,0.2-8.5c0.1-0.1,0.1-0.3,0.1-0.5c0-21,1.7-38.4,5-51.9
			c0.7,0.8,1.7,2.3,3.2,5.4C94.9,50.3,99,68,99.1,75.5z"/>
		<path d="M180,39.6c0-7.2,0.4-18.2,1-32.5c0-0.3-0.2-0.6-0.4-0.8l-2.2-1.1c-0.1-0.1-0.2-0.1-0.4-0.1c-0.9,0-2.6,0.4-2.9,2.9
			c0,0,0,0.1,0,0.1v27.1c0,3-0.3,7-0.8,12c0,0,0,0.1,0,0.1c0,2.2,0,3.7,0.1,4.5c-0.3,6.6-0.5,10.5-0.5,11.6c0,3.8,0.7,21.4,2.2,52.2
			v1.4c-10.5-31.9-16.5-52.2-18-60.2c0,0,0-0.1,0-0.1C142.9,4,141.3,4,140.2,4c-0.9,0-2.6,0.4-3,2.9c0,0,0,0.1,0,0.1v66.2
			c0,17.5,0.7,37.6,2.2,59.7c0,1.9,1.1,2.9,2.9,2.9h2.2c0.2,0,0.5-0.1,0.6-0.3c0.2-0.2,0.2-0.4,0.2-0.6c-2.2-18.3-3.2-42-3.2-70.4
			c0-5.7,0.3-15.6,0.8-29.7l-0.1-3.2c0-2.5-0.2-5.9-0.5-10l9.1,31.2C176.4,138,178,138,179.2,138c0.1,0,0.3,0,0.4-0.1l2.1-1.1
			c0.3-0.1,0.5-0.4,0.5-0.8c-1.4-34.8-2.1-63.7-2.1-85.8V39.6z"/>
		<path d="M305.5,23.8l-0.1-3.5c0-0.1,0-0.2-0.1-0.4l-0.9-1.6c-0.1-0.3-0.4-0.4-0.7-0.4h-1c-0.3,0-0.7,0.2-0.8,0.6
			c-13.3,38.7-16.3,49.2-17,52.4C265,16.8,263.4,16.3,262.6,16c-0.2-0.1-0.4-0.1-0.6,0.1l-2,1c-0.3,0.2-0.5,0.5-0.4,0.8
			c2,16.1,4,54.8,6.1,114.9c0,1.8,1,2.9,2.8,2.9c0.1,0,0.3,0,0.4-0.1l2-1c0.3-0.1,0.5-0.4,0.4-0.8l-5-99
			C282,78.9,284.3,79,285.5,79.1c0.2,0,0.4,0,0.5-0.2c0.6-0.4,1.7-1.3,13.9-39l0,40.5c2,57.3,3.4,57.3,4.8,57.3c0.1,0,0.3,0,0.4-0.1
			l2.1-1c0.3-0.1,0.5-0.5,0.4-0.8c-2-34-3-54-3-59.5C304.6,62.1,304.9,44.5,305.5,23.8z"/>
		<path d="M361.6,111.3C359,84.9,354.9,63,349.4,46c-2.1-5.9-4.6-9.5-7.6-10.9c-0.1,0-0.2-0.1-0.3-0.1h-0.3c-2.4,0-4.1,2.5-5.1,7.6
			c-2.3,15.8-3.5,31-3.6,45.2c0,2.8,0.1,5.6,0.3,8.2c0,4.2-0.8,16.8-2.3,37.6c0,3.5,2.1,4.1,3.4,4.1c0.2,0,0.3,0,0.4-0.1
			c1.2-0.7,1.7-1.3,1.7-2c0-0.7-0.2-1.4-0.6-2.1l2-27.3V94.8c0.4-0.4,2.8-1.4,15.2-2.6l1.6,0.2c1.5,11.1,2.4,17.4,2.9,19
			c2.1,19.1,3.1,22.7,3.6,23.8c0.1,0.3,0.4,0.4,0.7,0.4c1.8,0,2.5-0.8,2.8-1.5c0-0.1,0.1-0.2,0.1-0.3
			C364.2,127.5,363.3,119.8,361.6,111.3z M353.8,87.4c-5.3,0.1-10.7,0.9-16.4,2.3c0-4.9,0.1-6.3,0.2-6.7c0.1-0.1,0.1-0.3,0.1-0.4
			c0-16.7,1.3-30.6,4-41.4c0.5,0.6,1.3,1.8,2.3,4.1C350.3,67.1,353.6,81.2,353.8,87.4z"/>
		<path d="M225.3,9.1h-0.7c-0.2,0-0.3,0-0.4,0.1c-1.3,0.8-1.9,1.5-1.9,2.2c0,0,0,0.1,0,0.1c0.7,4.6,1.1,9.8,1.1,15.5l0,10.3
			c-1.5,16.2-2.2,46.2-2.2,89c0,9.1,0.8,10.9,2.3,10.9h1.5c1.7,0,2.1-2.5,2.3-3.3c0-0.1,0-0.2,0-0.3c-0.6-2.5-0.7-3.3-0.7-3.5v-24.2
			c0-7.6,0.1-18,0.4-30.9c0-0.1,0-0.1,0-0.2c-0.2-0.9-0.3-1.9-0.3-2.7c1.5-20.2,2.2-32.8,2.2-37.7v-4.8
			C228.8,10.7,227,9.1,225.3,9.1z"/>
	</g>
	<path d="M34.6,50.8c-0.2-2.7-0.6-5.2-1.3-7.2c0,0,0-0.1,0-0.1c-3.7-9.1-10.5-13.8-20.5-13.8c-0.2,0-0.5,0.1-0.6,0.2
		c-0.9,0.6-1.8,1.2-1.8,2.2V33c0,0.6,0.2,1.1,0.6,1.4L9.5,88.6c0,1.1,0.2,4,0.5,8.8c-0.4,0.3-0.9,0.8-1.1,1.7c0,0.1,0,0.2,0,0.3
		c0,0.6,0.2,1.5,1.2,2.2c0.2,11.2,0.6,22.4,1.4,33.6c0.2,3.1,5.8,2,5.6-0.7c-0.7-10.9-1.1-21.8-1.3-32.7c0.4-0.1,1.1-0.2,2.3-0.3
		c0.2,0,0.3-0.1,0.5-0.1c4-2,7.1-4.9,9.3-8.6c0-0.1,0.1-0.2,0.1-0.3C32.4,77.5,34.6,63.5,34.6,50.8C34.6,50.8,34.6,50.8,34.6,50.8z
		 M20.8,36.6c5.6,3.9,8.4,8.3,8.4,13.1c0,1.1-0.1,3.5-0.3,7.1C26.1,85.7,22.7,91.9,21,93c-0.1,0.1-0.2,0.1-0.2,0.2
		c-1.9,1.9-3.7,3-5.4,3.2c0-1.7-0.1-4.3-0.3-7.8l1.5-53.2C18,35.7,19.5,36.1,20.8,36.6z"/>
</g>
</svg>
