<?xml version="1.0" encoding="utf-8"?>
<!-- Generator: Adobe Illustrator 26.5.3, SVG Export Plug-In . SVG Version: 6.00 Build 0)  -->
<svg version="1.1" id="Layer_1" xmlns="http://www.w3.org/2000/svg" xmlns:xlink="http://www.w3.org/1999/xlink" x="0px" y="0px"
	 viewBox="0 0 116.3 147.2" style="enable-background:new 0 0 116.3 147.2;" xml:space="preserve">
<style type="text/css">
	.st0{fill:#5A5959;}
	.st1{fill:#C9A962;}
	.st2{fill:none;stroke:#FFFFFF;stroke-width:3;stroke-miterlimit:10;}
	.st3{fill:#FFFFFF;}
	.st4{fill:none;stroke:#FFFFFF;stroke-miterlimit:10;}
	.st5{fill:#C4A67C;}
</style>
<g>
	<path class="st5" d="M116,130.8c-0.4-1.7-20.2-2.2-23-2.3c-2.8-0.1-7.8-0.7-7.8-0.7c0.2-1.3,0.2-3.9,0.2-3.9c3.7-1,8-1.4,8-1.4
		c12.2-0.7,22.1-1.9,22.1-1.9s0.7,0.1,0.4-0.6c-0.2-0.7-1.1-0.7-1.1-0.7c-5.8-0.5-16.8-0.6-22.2-0.7c-5.4-0.1-20.2-0.9-25.5,5.6
		c-6.1,7.5-16.1,6.9-16.1,6.9s-24.2,1.1-35-0.5c-10.8-1.6-17.6-0.6-15.7,4c2,4.6,11.7,3.4,24.4,2.8c12.7-0.6,20.6-0.9,30.1-0.3
		c9.5,0.6,10.9,4.7,16.1,7.3c5.2,2.6,8.9,3.6,21.2,2.3s19.7-3.3,21.7-3.8c2-0.5,2.6-1.4,1.8-1.8c-0.8-0.5-4.5-0.5-4.5-0.5
		c-9-0.5-19.6-0.7-21.4-0.9c-1.8-0.2-4.2-0.6-4.2-0.6c0.1-2-0.4-4.1-0.4-4.1c4.9-1.4,8.6-1.8,19.3-2.2
		C115.2,132.1,116.4,132.4,116,130.8z M70.9,138.4c-2.5-2.1-5.7-4.3-5.7-4.3c2.1-2,3.5-2.7,6.5-6.4c3-3.7,7.1-3.8,7.1-3.8
		c-0.5,5.5,0.3,18.2,0.3,18.2C76,142.1,73.3,140.6,70.9,138.4z"/>
	<path class="st5" d="M12.9,116.6c17,8.1,33.2,0.2,38.2-4.9c5-5.1,28.9-3.4,28.9-3.4s14.4-0.2,24,1.3c9.5,1.5,15.8-3.4,10.4-6.1
		c-5.5-2.7-20.5-0.3-35.6-0.2c-15.1,0.1-19.2-0.6-19.2-0.6C48.3,101.9,48.3,89,32.8,89.1c-18.9,0.1-27.5,8.3-27.5,16.4
		S12.9,116.6,12.9,116.6z M29.3,95.3c15-1.5,17.6,5.5,17.8,9.1c0,0,1.4,11.9-21.3,10c0,0-9.8-1.2-13-6.1
		C9.5,103.4,14.3,96.8,29.3,95.3z"/>
	<path class="st5" d="M54.2,27.3c2.1,2.7,4,2.8,2.6,7c0,0-0.2,0.8,0.6,0.9c0,0,0.5,0.1,1-0.4c0,0,7.9-7.3,8.4-15.1
		C67.3,12,64,5.3,60.1,0.4c0,0-0.6-0.9-1.4-0.1c-0.8,0.7-3.3,3-5.7,7.2c-2.4,4.1-4.8,7.7-2,15.1C51,22.6,52.1,24.6,54.2,27.3z
		 M58.5,5.8c5.8,10.4,0.3,21.5,0.3,21.5c-2-6-3.9-7.1-4.1-12.1C54.5,10.1,58.5,5.8,58.5,5.8z"/>
	<path class="st5" d="M40.1,77.1c7.1,4.6,23.9,9.2,36.5,0.1c12.5-9.1,10.8-22.3,11-24.7c0.2-2.4-1.7-3.7-10-2.4s-16.3,9.5-16.3,9.5
		s1.2-6.1,10.8-10.2c9.6-4.2,14-19.1,10.6-21.4c-3.4-2.2-8.9-0.2-14.7,2.6c-5.8,2.7-9.7,11.1-9.7,11.1c-4.9-10.7-11-13.6-14.5-14.6
		c-3.5-0.9-9.2-3.6-9.6,1.5c-0.3,5.1-0.1,7.1,2.5,12.3c2.6,5.2,5.8,6.9,7.8,8.1c2,1.1,3.5,2,3.5,2c6,3,7.9,9.6,6.6,7.8
		c-2.6-3.5-11.2-9.9-18.5-10.4c-7.2-0.4-7.1,0.7-6.9,8.1C29.3,64,33.1,72.5,40.1,77.1z M67.1,62.2c4.7-5.4,12.3-6.3,13.6-6.5
		c0.1,0,0.2,0.1,0.2,0.2c0,1-0.2,6-4.3,12c-4.2,6.2-13,7.7-14.4,7.9c-0.1,0-0.2-0.1-0.2-0.2C62,74.4,62.5,67.6,67.1,62.2z
		 M66.7,38.2c4.3-5.2,11.1-5.9,11.1-5.9c0.3,3.9-1.7,8.5-5.4,11.9c-3.7,3.4-10.9,7.1-10.9,7.1C62,45.3,62.4,43.4,66.7,38.2z
		 M43.5,42.5c-4.4-5.1-4.2-11-4.2-11c5.2,1.1,8.1,3,12,7.4c3.9,4.4,4.2,12.6,4.2,12.6C51.6,47.8,47.9,47.6,43.5,42.5z M35.5,54.9
		c8.2,0.7,13.9,6.8,14.2,7.1c0,0,0,0,0,0c3.9,4.9,5.2,11.7,5.5,13.4c0,0.2-0.1,0.4-0.3,0.3c-1.8-0.3-9.7-2.2-14.3-7.9
		c-4.5-5.7-5.2-11.2-5.3-12.5C35.2,55.1,35.3,54.9,35.5,54.9z"/>
</g>
</svg>
