<svg viewBox="0 0 388.2 174.2" fill="none" xmlns="http://www.w3.org/2000/svg">
  <path d="M245.3,25.1c36.7,7.2,44.8,3.7,79.8,11.9c13.3,3.1,32.4,9.3,40.1,20.6c5.4,8,14.5,24.9,14.1,36.7
    c-0.7,20.1,2.2,28.2-8.1,61.4c-0.5,1.6-3,6-4.1,7.3c-1,1.2-5.1,4-8.1,4.5c-9.5,1.4-14.9,0.4-24.5,0c-13-0.6-30.7-0.4-43.6,0.8
    c-27.3,2.6-41,1.2-65.6,1.8c-25.5,0.6-60.5-1.8-74.5-2.4c-19-0.9-47.9,4.1-66.8,2c-12.5-1.4-15-2.3-20.7-3.9
    c-3.7-1-7.7-5.6-9.3-7.3c-2.1-2-8.9-10.5-12.4-16.9c-7.1-19.1-7.5-28.6-5.2-50.3c1.4-13,8.4-29.1,24-41.8
    c19.2-15.7,16.8-19.7,41.4-29.7c32.9-5.1,47.7-2.8,70.3-0.3C196.9,22.3,230.4,22.1,245.3,25.1z" fill="#D4A55D"/>
</svg>
